<mxfile host="app.diagrams.net" modified="2022-08-29T09:41:06.036Z" agent="5.0 (Windows NT 10.0; Win64; x64) AppleWebKit/537.36 (KHTML, like Gecko) Chrome/95.0.4638.69 Safari/537.36" etag="glRl7Z5FeSfamy2PnzaP" version="20.0.3" type="github">
  <diagram id="3nWGBSJvrAFprFk3S9ik" name="第 1 页">
    <mxGraphModel dx="1120" dy="583" grid="1" gridSize="10" guides="1" tooltips="1" connect="1" arrows="1" fold="1" page="1" pageScale="1" pageWidth="827" pageHeight="1169" math="0" shadow="0">
      <root>
        <mxCell id="0" />
        <mxCell id="1" parent="0" />
        <mxCell id="npY1c-iQ-Zh02mKIF7-l-25" value="" style="rounded=1;whiteSpace=wrap;html=1;strokeColor=#000000;strokeWidth=1;fillColor=none;" vertex="1" parent="1">
          <mxGeometry x="740" y="40" width="470" height="210" as="geometry" />
        </mxCell>
        <mxCell id="npY1c-iQ-Zh02mKIF7-l-39" value="" style="rounded=1;whiteSpace=wrap;html=1;fontSize=17;strokeColor=#d79b00;strokeWidth=1;fillColor=#ffe6cc;" vertex="1" parent="1">
          <mxGeometry x="760" y="45" width="390" height="80" as="geometry" />
        </mxCell>
        <mxCell id="npY1c-iQ-Zh02mKIF7-l-23" value="" style="rounded=1;whiteSpace=wrap;html=1;strokeColor=#000000;strokeWidth=1;fillColor=none;" vertex="1" parent="1">
          <mxGeometry x="110" y="90" width="520" height="310" as="geometry" />
        </mxCell>
        <mxCell id="npY1c-iQ-Zh02mKIF7-l-11" value="" style="rounded=0;whiteSpace=wrap;html=1;strokeWidth=1;fillColor=#fff2cc;strokeColor=#d6b656;" vertex="1" parent="1">
          <mxGeometry x="170" y="300" width="390" height="60" as="geometry" />
        </mxCell>
        <mxCell id="npY1c-iQ-Zh02mKIF7-l-5" style="edgeStyle=orthogonalEdgeStyle;rounded=0;orthogonalLoop=1;jettySize=auto;html=1;entryX=0.5;entryY=0;entryDx=0;entryDy=0;" edge="1" parent="1" source="npY1c-iQ-Zh02mKIF7-l-3">
          <mxGeometry relative="1" as="geometry">
            <mxPoint x="375" y="120" as="targetPoint" />
          </mxGeometry>
        </mxCell>
        <mxCell id="npY1c-iQ-Zh02mKIF7-l-3" value="kubectl" style="rounded=1;whiteSpace=wrap;html=1;fillColor=#d5e8d4;strokeColor=#82b366;" vertex="1" parent="1">
          <mxGeometry x="315" y="30" width="120" height="40" as="geometry" />
        </mxCell>
        <mxCell id="npY1c-iQ-Zh02mKIF7-l-6" value="" style="rounded=1;whiteSpace=wrap;html=1;fillColor=#d5e8d4;strokeColor=#82b366;" vertex="1" parent="1">
          <mxGeometry x="150" y="120" width="430" height="170" as="geometry" />
        </mxCell>
        <mxCell id="npY1c-iQ-Zh02mKIF7-l-2" value="master" style="text;html=1;strokeColor=none;fillColor=none;align=center;verticalAlign=middle;whiteSpace=wrap;rounded=0;" vertex="1" parent="1">
          <mxGeometry x="160" y="120" width="60" height="30" as="geometry" />
        </mxCell>
        <mxCell id="npY1c-iQ-Zh02mKIF7-l-16" style="edgeStyle=orthogonalEdgeStyle;rounded=0;orthogonalLoop=1;jettySize=auto;html=1;entryX=0.567;entryY=0.167;entryDx=0;entryDy=0;entryPerimeter=0;" edge="1" parent="1" source="npY1c-iQ-Zh02mKIF7-l-7" target="npY1c-iQ-Zh02mKIF7-l-13">
          <mxGeometry relative="1" as="geometry" />
        </mxCell>
        <mxCell id="npY1c-iQ-Zh02mKIF7-l-7" value="api service" style="rounded=1;whiteSpace=wrap;html=1;" vertex="1" parent="1">
          <mxGeometry x="315" y="130" width="115" height="30" as="geometry" />
        </mxCell>
        <mxCell id="npY1c-iQ-Zh02mKIF7-l-12" value="node 组件" style="text;html=1;strokeColor=none;fillColor=none;align=center;verticalAlign=middle;whiteSpace=wrap;rounded=0;" vertex="1" parent="1">
          <mxGeometry x="470" y="310" width="60" height="30" as="geometry" />
        </mxCell>
        <mxCell id="npY1c-iQ-Zh02mKIF7-l-13" value="etcd" style="rounded=1;whiteSpace=wrap;html=1;strokeColor=#000000;strokeWidth=1;fillColor=none;" vertex="1" parent="1">
          <mxGeometry x="305" y="250" width="120" height="30" as="geometry" />
        </mxCell>
        <mxCell id="npY1c-iQ-Zh02mKIF7-l-17" style="edgeStyle=orthogonalEdgeStyle;rounded=0;orthogonalLoop=1;jettySize=auto;html=1;entryX=0;entryY=0.5;entryDx=0;entryDy=0;" edge="1" parent="1" source="npY1c-iQ-Zh02mKIF7-l-14" target="npY1c-iQ-Zh02mKIF7-l-7">
          <mxGeometry relative="1" as="geometry" />
        </mxCell>
        <mxCell id="npY1c-iQ-Zh02mKIF7-l-14" value="controller&amp;nbsp; manager" style="rounded=1;whiteSpace=wrap;html=1;strokeColor=#000000;strokeWidth=1;fillColor=none;" vertex="1" parent="1">
          <mxGeometry x="205" y="190" width="120" height="30" as="geometry" />
        </mxCell>
        <mxCell id="npY1c-iQ-Zh02mKIF7-l-19" style="edgeStyle=orthogonalEdgeStyle;rounded=0;orthogonalLoop=1;jettySize=auto;html=1;entryX=1;entryY=0.5;entryDx=0;entryDy=0;" edge="1" parent="1" source="npY1c-iQ-Zh02mKIF7-l-15" target="npY1c-iQ-Zh02mKIF7-l-7">
          <mxGeometry relative="1" as="geometry" />
        </mxCell>
        <mxCell id="npY1c-iQ-Zh02mKIF7-l-15" value="scheduler" style="rounded=1;whiteSpace=wrap;html=1;strokeColor=#000000;strokeWidth=1;fillColor=none;" vertex="1" parent="1">
          <mxGeometry x="414" y="190" width="120" height="30" as="geometry" />
        </mxCell>
        <mxCell id="npY1c-iQ-Zh02mKIF7-l-21" style="edgeStyle=orthogonalEdgeStyle;rounded=0;orthogonalLoop=1;jettySize=auto;html=1;entryX=0;entryY=0.5;entryDx=0;entryDy=0;" edge="1" parent="1" source="npY1c-iQ-Zh02mKIF7-l-8" target="npY1c-iQ-Zh02mKIF7-l-7">
          <mxGeometry relative="1" as="geometry">
            <Array as="points">
              <mxPoint x="160" y="330" />
              <mxPoint x="160" y="145" />
            </Array>
          </mxGeometry>
        </mxCell>
        <mxCell id="npY1c-iQ-Zh02mKIF7-l-8" value="kubelet" style="rounded=1;whiteSpace=wrap;html=1;" vertex="1" parent="1">
          <mxGeometry x="205" y="310" width="90" height="40" as="geometry" />
        </mxCell>
        <mxCell id="npY1c-iQ-Zh02mKIF7-l-10" value="kube-proxy&lt;br&gt;" style="rounded=1;whiteSpace=wrap;html=1;" vertex="1" parent="1">
          <mxGeometry x="340" y="310" width="90" height="40" as="geometry" />
        </mxCell>
        <mxCell id="npY1c-iQ-Zh02mKIF7-l-24" value="master node" style="text;html=1;strokeColor=none;fillColor=none;align=center;verticalAlign=middle;whiteSpace=wrap;rounded=0;" vertex="1" parent="1">
          <mxGeometry x="145" y="60" width="115" height="30" as="geometry" />
        </mxCell>
        <mxCell id="npY1c-iQ-Zh02mKIF7-l-26" value="" style="ellipse;whiteSpace=wrap;html=1;aspect=fixed;strokeColor=#000000;strokeWidth=1;fillColor=none;" vertex="1" parent="1">
          <mxGeometry x="820" y="50" width="70" height="70" as="geometry" />
        </mxCell>
        <mxCell id="npY1c-iQ-Zh02mKIF7-l-27" value="pod" style="text;html=1;strokeColor=none;fillColor=none;align=center;verticalAlign=middle;whiteSpace=wrap;rounded=0;fontSize=17;" vertex="1" parent="1">
          <mxGeometry x="825" y="70" width="60" height="30" as="geometry" />
        </mxCell>
        <mxCell id="npY1c-iQ-Zh02mKIF7-l-33" value="" style="ellipse;whiteSpace=wrap;html=1;aspect=fixed;strokeColor=#000000;strokeWidth=1;fillColor=none;" vertex="1" parent="1">
          <mxGeometry x="980" y="50" width="70" height="70" as="geometry" />
        </mxCell>
        <mxCell id="npY1c-iQ-Zh02mKIF7-l-34" value="pod" style="text;html=1;strokeColor=none;fillColor=none;align=center;verticalAlign=middle;whiteSpace=wrap;rounded=0;fontSize=17;" vertex="1" parent="1">
          <mxGeometry x="985" y="70" width="60" height="30" as="geometry" />
        </mxCell>
        <mxCell id="npY1c-iQ-Zh02mKIF7-l-35" value="" style="ellipse;whiteSpace=wrap;html=1;aspect=fixed;strokeColor=#000000;strokeWidth=1;fillColor=none;" vertex="1" parent="1">
          <mxGeometry x="900" y="50" width="70" height="70" as="geometry" />
        </mxCell>
        <mxCell id="npY1c-iQ-Zh02mKIF7-l-36" value="pod" style="text;html=1;strokeColor=none;fillColor=none;align=center;verticalAlign=middle;whiteSpace=wrap;rounded=0;fontSize=17;" vertex="1" parent="1">
          <mxGeometry x="905" y="70" width="60" height="30" as="geometry" />
        </mxCell>
        <mxCell id="npY1c-iQ-Zh02mKIF7-l-41" value="docker" style="text;html=1;strokeColor=none;fillColor=none;align=center;verticalAlign=middle;whiteSpace=wrap;rounded=0;fontSize=17;" vertex="1" parent="1">
          <mxGeometry x="1070" y="70" width="60" height="30" as="geometry" />
        </mxCell>
        <mxCell id="npY1c-iQ-Zh02mKIF7-l-42" value="" style="rounded=0;whiteSpace=wrap;html=1;strokeWidth=1;fillColor=#fff2cc;strokeColor=#d6b656;" vertex="1" parent="1">
          <mxGeometry x="760" y="150" width="390" height="60" as="geometry" />
        </mxCell>
        <mxCell id="npY1c-iQ-Zh02mKIF7-l-43" value="node 组件" style="text;html=1;strokeColor=none;fillColor=none;align=center;verticalAlign=middle;whiteSpace=wrap;rounded=0;" vertex="1" parent="1">
          <mxGeometry x="1060" y="160" width="60" height="30" as="geometry" />
        </mxCell>
        <mxCell id="npY1c-iQ-Zh02mKIF7-l-46" style="edgeStyle=orthogonalEdgeStyle;rounded=0;orthogonalLoop=1;jettySize=auto;html=1;entryX=1;entryY=0.5;entryDx=0;entryDy=0;fontSize=17;" edge="1" parent="1" source="npY1c-iQ-Zh02mKIF7-l-44" target="npY1c-iQ-Zh02mKIF7-l-7">
          <mxGeometry relative="1" as="geometry">
            <Array as="points">
              <mxPoint x="700" y="180" />
              <mxPoint x="700" y="145" />
            </Array>
          </mxGeometry>
        </mxCell>
        <mxCell id="npY1c-iQ-Zh02mKIF7-l-44" value="kubelet" style="rounded=1;whiteSpace=wrap;html=1;" vertex="1" parent="1">
          <mxGeometry x="795" y="160" width="90" height="40" as="geometry" />
        </mxCell>
        <mxCell id="npY1c-iQ-Zh02mKIF7-l-45" value="kube-proxy&lt;br&gt;" style="rounded=1;whiteSpace=wrap;html=1;" vertex="1" parent="1">
          <mxGeometry x="930" y="160" width="90" height="40" as="geometry" />
        </mxCell>
      </root>
    </mxGraphModel>
  </diagram>
</mxfile>
